<svg width="39" height="40" fill="none" xmlns="http://www.w3.org/2000/svg"><rect x=".084" y=".463" width="38.747" height="38.747" rx="19.373" fill="#E60012"/><g clip-path="url(#clip0)"><path d="M28.3 16.18a6.644 6.644 0 00-.423-2.164 4.245 4.245 0 00-1.012-1.567 4.318 4.318 0 00-1.582-1.026 6.578 6.578 0 00-2.154-.41c-.957-.037-1.251-.056-3.662-.056-2.41 0-2.724.019-3.662.056a6.487 6.487 0 00-2.153.41 4.318 4.318 0 00-1.583 1.026c-.46.448-.81.97-1.03 1.567a6.628 6.628 0 00-.405 2.164c-.037.952-.056 1.25-.056 3.657 0 2.406.019 2.704.056 3.656.018.746.147 1.474.404 2.164a4.06 4.06 0 001.031 1.567c.442.447.975.802 1.583 1.026a6.59 6.59 0 002.153.41c.957.037 1.251.056 3.662.056 2.41 0 2.705 0 3.662-.056a6.488 6.488 0 002.153-.41 4.646 4.646 0 001.583-1.026 4.573 4.573 0 001.012-1.567c.258-.69.405-1.418.405-2.164.037-.952.055-1.25.055-3.656 0-2.407 0-2.705-.036-3.657zm-1.6 7.257c0 .56-.11 1.12-.313 1.641a2.887 2.887 0 01-.663 1.026 2.91 2.91 0 01-1.03.672 4.568 4.568 0 01-1.657.299c-.938.037-1.214.055-3.588.055s-2.65 0-3.589-.055a5 5 0 01-1.656-.299 2.91 2.91 0 01-1.03-.672 2.73 2.73 0 01-.663-1.026 4.976 4.976 0 01-.295-1.641c-.037-.933-.055-1.213-.055-3.582 0-2.369 0-2.649.055-3.582 0-.56.11-1.119.313-1.641a2.87 2.87 0 01.663-1.026 2.91 2.91 0 011.03-.672 4.568 4.568 0 011.657-.298c.938-.037 1.214-.056 3.588-.056s2.65 0 3.589.056c.57 0 1.122.112 1.656.298.387.15.736.373 1.03.672.295.28.516.634.663 1.026.203.522.294 1.082.313 1.641.037.933.055 1.213.055 3.582 0 2.37-.037 2.63-.073 3.582zm-7.233-8.152c-2.484.037-4.472 2.108-4.435 4.626.037 2.518 2.08 4.514 4.564 4.496 2.466-.037 4.435-2.07 4.435-4.57-.018-2.538-2.061-4.57-4.564-4.552zm0 7.518c-1.62-.019-2.908-1.362-2.87-3.004.018-1.641 1.343-2.947 2.962-2.91 1.601.019 2.871 1.343 2.871 2.966-.018 1.623-1.343 2.948-2.963 2.948zm4.748-8.768c-.589 0-1.049.485-1.03 1.082.018.597.478 1.063 1.067 1.045.57 0 1.03-.485 1.03-1.064a1.083 1.083 0 00-1.067-1.063z" fill="#fff"/></g><defs><clipPath id="clip0"><path fill="#fff" transform="translate(9.771 10.15)" d="M0 0h19.373v19.373H0z"/></clipPath></defs></svg>