<svg width="39" height="40" fill="none" xmlns="http://www.w3.org/2000/svg"><rect x=".253" y=".463" width="38.747" height="38.747" rx="19.373" fill="#E60012"/><g clip-path="url(#clip0)"><path d="M29.105 16.317s-.182-1.326-.78-1.924c-.728-.78-1.56-.78-1.95-.833-2.679-.182-6.761-.182-6.761-.182s-4.057 0-6.762.208c-.39.027-1.222.027-1.95.807-.572.598-.78 1.924-.78 1.924s-.182 1.56-.182 3.12v1.483c0 1.56.182 3.12.182 3.12s.182 1.327.78 1.925c.728.78 1.716.754 2.132.832 1.56.156 6.58.182 6.58.182s4.056 0 6.787-.208c.39-.052 1.196-.052 1.95-.832.572-.598.78-1.925.78-1.925s.182-1.56.182-3.12v-1.456a36.089 36.089 0 00-.208-3.121zm-11.494 6.371v-5.435l5.227 2.73-5.227 2.705z" fill="#fff"/></g><defs><clipPath id="clip0"><path fill="#fff" transform="translate(9.94 10.15)" d="M0 0h19.373v19.373H0z"/></clipPath></defs></svg>