<svg width="47" height="47" viewBox="0 0 47 47" fill="none" xmlns="http://www.w3.org/2000/svg">
<g clip-path="url(#clip0_2001_15)">
<path d="M0.5 0H46.5V24C46.5 36.703 36.203 47 23.5 47C10.797 47 0.5 36.703 0.5 24V0Z" fill="#FFCE00"/>
<path d="M27.338 25.5355C30.5529 22.3005 30.5365 17.0718 27.3015 13.857C24.0665 10.6421 18.8379 10.6585 15.623 13.8935C12.4082 17.1285 12.4245 22.3571 15.6595 25.572C18.8945 28.7869 24.1232 28.7705 27.338 25.5355Z" fill="white"/>
<path d="M25.6236 23.8317C27.8975 21.5435 27.886 17.8452 25.5978 15.5713C23.3096 13.2974 19.6113 13.309 17.3374 15.5971C15.0635 17.8853 15.0751 21.5836 17.3632 23.8575C19.6514 26.1314 23.3497 26.1199 25.6236 23.8317Z" fill="#FFCE00"/>
<path d="M28.3009 24.5647C27.6698 23.9375 26.6498 23.9407 26.0227 24.5718C25.3955 25.2029 25.3987 26.2229 26.0298 26.8501L30.0303 30.8257C30.6614 31.4528 31.6814 31.4496 32.3086 30.8185C32.9357 30.1875 32.9326 29.1674 32.3015 28.5403L28.3009 24.5647Z" fill="white"/>
</g>
<defs>
<clipPath id="clip0_2001_15">
<rect width="46" height="47" fill="white" transform="translate(0.5)"/>
</clipPath>
</defs>
</svg>
