<svg width="39" height="40" fill="none" xmlns="http://www.w3.org/2000/svg"><rect x=".169" y=".463" width="38.747" height="38.747" rx="19.373" fill="#E60012"/><g clip-path="url(#clip0)"><path d="M19.542 10.957c-5.357 0-9.687 3.522-9.687 7.852 0 3.89 3.45 7.192 8.146 7.779.367.073.807.22.88.514.074.22 0 .66 0 .88 0 0-.146.66-.146.808-.073.22-.22.954.807.513 1.028-.44 5.577-3.302 7.632-5.65 1.395-1.541 2.055-3.083 2.055-4.844 0-4.33-4.33-7.852-9.687-7.852zm-3.376 10.2c0 .147-.146.22-.22.22h-2.715c-.073 0-.147-.073-.147-.073-.073-.073-.073-.073-.073-.146V16.9c0-.147.147-.22.22-.22h.66c.147 0 .22.147.22.22v3.376h1.835c.074 0 .147.073.22.22v.66zm1.615.074c0 .147-.147.22-.22.22h-.66c-.147 0-.22-.147-.22-.22v-4.256c0-.147.146-.22.22-.22h.66c.147 0 .22.073.22.22v4.256zm4.843.073c0 .147-.146.22-.22.22h-.734l-.073-.073-1.908-2.642v2.495c0 .147-.147.22-.22.22h-.66c-.147 0-.22-.146-.22-.22v-4.256c0-.147.146-.22.22-.22h.66l1.908 2.642v-2.495c0-.147.147-.22.22-.22h.66c.074 0 .22.073.367.293v4.256zm3.596-3.742c0 .146-.147.22-.22.22h-1.835v.734H26c.147 0 .22.146.22.22v.66c0 .147-.147.22-.22.22h-1.835v.734H26c.147 0 .22.147.22.22v.66c0 .148-.147.221-.22.221h-2.715c-.074 0-.147-.073-.147-.073-.073-.074-.073-.074-.073-.147v-4.256c0-.074.073-.147.073-.147.073-.074.073-.074.147-.074H26c.147 0 .22.074.22.147v.66z" fill="#fff"/></g><defs><clipPath id="clip0"><path fill="#fff" transform="translate(9.855 10.15)" d="M0 0h19.373v19.373H0z"/></clipPath></defs></svg>