<?xml version="1.0" encoding="UTF-8"?><svg id="_圖層_1" xmlns="http://www.w3.org/2000/svg" width="22" height="31" viewBox="0 0 70.86 109.76"><defs><style>.cls-1{fill:#231815;}.cls-2{fill:#fff;}</style></defs><path class="cls-2" d="M17.48,74.3c.15,0,.31,0,.46,0,5.24,0,10.12-2.01,13.75-5.67,3.67-3.65,5.7-8.52,5.7-13.72,0-10.73-8.72-19.45-19.45-19.45-.15,0-.3,0-.46,0V1.52c28.74.8,51.88,24.43,51.88,53.37s-23.14,52.56-51.88,53.36v-33.94Z"/><path class="cls-1" d="M18.98,3.09c27.22,1.56,48.88,24.2,48.88,51.8s-21.67,50.23-48.88,51.79v-30.9c5.24-.25,10.1-2.39,13.76-6.08,3.96-3.94,6.15-9.19,6.15-14.79,0-11.2-8.84-20.38-19.91-20.93V3.09M15.98,0v37.07c.65-.07,1.3-.11,1.96-.11,9.9,0,17.95,8.05,17.95,17.95,0,4.81-1.88,9.3-5.26,12.67-3.38,3.4-7.9,5.23-12.69,5.23-.66,0-1.31-.04-1.96-.11v37.07c30.31,0,54.88-24.58,54.88-54.88S46.29,0,15.98,0h0Z"/></svg>