<?xml version="1.0" encoding="UTF-8"?><svg id="_圖層_2" xmlns="http://www.w3.org/2000/svg" width="20.44" height="16" viewBox="0 0 20.44 20.44"><defs><style>.cls-1{fill:#0d131a;}.cls-2{fill:#fff;}.cls-3{fill:#e50012;}</style></defs><g id="_圖層_1-2"><path class="cls-2" d="M10.22,0C4.58,0,0,4.58,0,10.22s4.58,10.22,10.22,10.22,10.22-4.58,10.22-10.22S15.87,0,10.22,0Z"/><path class="cls-3" d="M3.63,3.63C5.39,1.87,7.73.9,10.22.9s4.83.97,6.59,2.73c1.6,1.59,2.53,3.67,2.69,5.89h-4.91c-.14-.92-.58-1.77-1.24-2.44-.84-.83-1.95-1.3-3.13-1.3-2.2,0-4.04,1.62-4.37,3.73H.93c.17-2.23,1.11-4.3,2.7-5.89h0Z"/><path class="cls-1" d="M10.22,0C4.58,0,0,4.58,0,10.22s4.58,10.22,10.22,10.22,10.22-4.58,10.22-10.22S15.87,0,10.22,0ZM3.63,3.63C5.39,1.87,7.73.9,10.22.9s4.83.97,6.59,2.73c1.6,1.59,2.53,3.67,2.69,5.89h-4.91c-.14-.92-.58-1.77-1.24-2.44-.84-.83-1.95-1.3-3.13-1.3-2.2,0-4.04,1.62-4.37,3.73H.93c.17-2.23,1.11-4.3,2.7-5.89h0ZM13.26,10.22c0,1.68-1.36,3.04-3.04,3.04-.81,0-1.57-.32-2.14-.89-.58-.57-.88-1.34-.88-2.15s.31-1.57.88-2.15c.57-.57,1.33-.89,2.14-.89s1.57.31,2.15.89c.57.57.89,1.34.89,2.15ZM10.22,19.54c-2.49,0-4.83-.97-6.59-2.73-1.59-1.6-2.53-3.67-2.7-5.89h4.91c.14.92.58,1.76,1.24,2.43.84.84,1.95,1.3,3.13,1.3s2.29-.46,3.13-1.3c.67-.67,1.1-1.51,1.24-2.43h4.91c-.35,4.81-4.38,8.62-9.28,8.62h.01Z"/><path class="cls-1" d="M10.22,12c.98,0,1.77-.79,1.77-1.77s-.8-1.77-1.77-1.77-1.77.79-1.77,1.77.8,1.77,1.77,1.77Z"/><path class="cls-2" d="M10.22,11.59c.75,0,1.37-.61,1.37-1.37s-.61-1.37-1.37-1.37-1.37.61-1.37,1.37.61,1.37,1.37,1.37Z"/></g></svg>