<?xml version="1.0" encoding="UTF-8"?><svg id="_圖層_2" xmlns="http://www.w3.org/2000/svg" width="27" height="37" viewBox="0 0 78.65 109.76"><defs><style>.cls-1{fill:#9fa0a0;}.cls-2{fill:#fff;stroke:#231815;stroke-miterlimit:10;stroke-width:3px;}.cls-3{fill:#231815;}.cls-4{fill:#e60012;}</style></defs><path class="cls-4" d="M60.63,99.3c-23.81-.79-42.94-20.41-42.94-44.41S36.82,11.26,60.63,10.47v88.83Z"/><path class="cls-3" d="M59.13,12.05v85.67c-22.28-1.55-39.94-20.17-39.94-42.83S36.85,13.59,59.13,12.05M62.13,8.94c-25.37,0-45.94,20.57-45.94,45.94s20.57,45.94,45.94,45.94V8.94h0Z"/><path class="cls-2" d="M62.13,39.84c8.29,0,15.02,6.74,15.02,15.03,0,4.02-1.57,7.79-4.41,10.6-2.83,2.85-6.61,4.38-10.62,4.38s-7.78-1.53-10.62-4.38c-2.84-2.82-4.39-6.58-4.39-10.6s1.55-7.78,4.39-10.62c2.84-2.84,6.61-4.4,10.62-4.4Z"/><path class="cls-1" d="M70.9,54.87c0-4.84-3.92-8.78-8.77-8.78s-8.77,3.94-8.77,8.78,3.92,8.77,8.77,8.77,8.77-3.94,8.77-8.77Z"/></svg>