<svg width="162" height="23" fill="none" xmlns="http://www.w3.org/2000/svg"><path d="M15.548 14.023c0 1.435-.416 2.535-1.246 3.3-.822.764-1.987 1.147-3.498 1.147-1.51 0-2.714-.5-3.61-1.501-.888-1.01-1.332-2.365-1.332-4.064v-1.6c0-1.643.449-2.965 1.345-3.965.907-1.01 2.106-1.515 3.597-1.515 1.539 0 2.714.391 3.526 1.175.821.774 1.232 1.864 1.232 3.271h-2.209c0-.906-.217-1.553-.651-1.94-.435-.396-1.067-.595-1.898-.595-.868 0-1.543.321-2.025.963-.472.633-.712 1.482-.722 2.549v1.742c0 1.104.24 1.977.722 2.62.482.632 1.157.948 2.025.948.84 0 1.473-.189 1.898-.566.424-.387.637-1.043.637-1.969h2.209zm3.766-1.883c0-1.567-.354-3.02-1.062-4.361A8.233 8.233 0 0015.25 4.55a7.835 7.835 0 00-4.248-1.217 8.018 8.018 0 00-4.191 1.16c-1.284.775-2.294 1.841-3.03 3.2-.737 1.36-1.105 2.842-1.105 4.447s.364 3.087 1.09 4.446a8.452 8.452 0 003.03 3.229 7.97 7.97 0 004.206 1.175 7.83 7.83 0 004.206-1.203 8.277 8.277 0 003.03-3.243 9.292 9.292 0 001.076-4.404zm-18.365 0c0-1.907.439-3.677 1.317-5.31.887-1.633 2.11-2.917 3.667-3.851a9.652 9.652 0 015.07-1.417 9.58 9.58 0 015.055 1.417 9.797 9.797 0 013.667 3.851c.887 1.633 1.331 3.403 1.331 5.31 0 1.926-.448 3.71-1.345 5.353-.897 1.633-2.124 2.917-3.682 3.851a9.553 9.553 0 01-5.027 1.402 9.604 9.604 0 01-5.069-1.416c-1.548-.944-2.766-2.232-3.653-3.866C1.392 15.831.949 14.057.949 12.14zm42.74 10.323H39.44L31.17 8.897v13.566h-4.248V1.846h4.248l8.284 13.594V1.846h4.234v20.617zm10.37 0h-4.107V7.142h4.106v15.32zM49.71 3.177c0-.614.203-1.119.609-1.515.415-.397.977-.595 1.685-.595.699 0 1.256.198 1.671.595.415.396.623.901.623 1.515 0 .623-.212 1.133-.637 1.53-.416.396-.968.594-1.657.594-.689 0-1.246-.198-1.67-.595-.416-.396-.624-.906-.624-1.53zm14.11 3.965l.128 1.77c1.095-1.37 2.563-2.054 4.403-2.054 1.624 0 2.833.477 3.625 1.43.793.954 1.2 2.38 1.218 4.277v9.898h-4.092v-9.799c0-.868-.189-1.496-.567-1.883-.377-.397-1.005-.595-1.883-.595-1.151 0-2.015.49-2.591 1.473v10.804h-4.092V7.142h3.851zm19.999-3.767v3.767h2.62v3.002h-2.62v7.646c0 .566.108.972.326 1.218.217.245.632.368 1.246.368.453 0 .854-.033 1.203-.1v3.102a8.423 8.423 0 01-2.478.368c-2.87 0-4.333-1.449-4.39-4.347v-8.255h-2.237V7.142h2.238V3.375h4.092zM98.38 22.746c-2.247 0-4.078-.689-5.494-2.067-1.407-1.378-2.11-3.215-2.11-5.509v-.396c0-1.539.297-2.912.892-4.12.595-1.218 1.435-2.153 2.52-2.804 1.096-.661 2.342-.992 3.739-.992 2.096 0 3.743.661 4.942 1.983 1.208 1.321 1.812 3.195 1.812 5.621v1.671h-9.756c.132 1.001.529 1.803 1.19 2.408.67.604 1.515.906 2.534.906 1.577 0 2.809-.571 3.696-1.714l2.011 2.252c-.614.868-1.445 1.548-2.493 2.039-1.047.481-2.209.722-3.483.722zm-.467-12.574c-.812 0-1.473.274-1.983.821-.5.548-.821 1.331-.963 2.35h5.693v-.325c-.019-.906-.264-1.605-.737-2.096-.471-.5-1.142-.75-2.01-.75zm15.481-3.03l.128 1.77c1.095-1.37 2.563-2.054 4.404-2.054 1.623 0 2.832.477 3.625 1.43.793.954 1.198 2.38 1.217 4.277v9.898h-4.092v-9.799c0-.868-.189-1.496-.566-1.883-.378-.397-1.006-.595-1.884-.595-1.151 0-2.015.49-2.591 1.473v10.804h-4.092V7.142h3.851zm14.462 7.547c0-2.388.534-4.29 1.6-5.707 1.077-1.416 2.545-2.124 4.404-2.124 1.492 0 2.724.557 3.696 1.671V.713h4.107v21.75h-3.696l-.199-1.629c-1.019 1.275-2.331 1.912-3.936 1.912-1.803 0-3.252-.708-4.347-2.124-1.086-1.425-1.629-3.403-1.629-5.933zm4.093.297c0 1.435.25 2.535.75 3.3.5.764 1.227 1.147 2.181 1.147 1.265 0 2.157-.534 2.676-1.6v-6.047c-.51-1.067-1.392-1.6-2.648-1.6-1.973 0-2.959 1.6-2.959 4.8zm14.858-.325c0-1.52.293-2.875.878-4.064.585-1.19 1.426-2.11 2.521-2.762 1.104-.65 2.383-.977 3.837-.977 2.067 0 3.752.633 5.055 1.898 1.312 1.265 2.044 2.983 2.195 5.154l.028 1.048c0 2.35-.656 4.239-1.968 5.664-1.312 1.416-3.073 2.124-5.282 2.124s-3.974-.708-5.296-2.124c-1.312-1.416-1.968-3.342-1.968-5.777v-.184zm4.092.297c0 1.454.274 2.568.822 3.342.547.764 1.331 1.147 2.35 1.147.992 0 1.766-.378 2.323-1.133.557-.765.835-1.983.835-3.653 0-1.426-.278-2.53-.835-3.314-.557-.783-1.341-1.175-2.351-1.175-1.001 0-1.775.392-2.322 1.175-.548.774-.822 1.978-.822 3.611z" fill="#333"/></svg>