<svg xmlns="http://www.w3.org/2000/svg" width="406" height="100"><path d="M53.127 100C21.305 99.986.03 77.442.03 50.083.03 22.738 21.348-.087 53.083 0h299.848c31.721-.086 53.039 22.738 53.039 50.083 0 27.36-21.268 49.903-53.09 49.917H53.128z" fill="#ed1c24"/><path d="M53.22 12.292c-25.203.043-40.66 16.899-40.66 37.726 0 20.835 15.377 37.806 40.66 37.719h299.553c25.304.087 40.667-16.884 40.667-37.719 0-20.827-15.464-37.683-40.667-37.726H53.22z" fill="#fff"/><path d="M40.294 26.372h14.678l20.294 32.83-.007-32.83h14.548v47.083H75.273l-20.395-32.83v32.83H40.294V26.372zm128.635 4.844h14.173v6.337h7.664v4.657h-7.664l.015 31.245h-14.188l.007-31.245h-7.692v-4.642l7.692-.015-.007-6.337zM97.91 42.146h14.16v31.317H97.91V42.146zm-.036-15.789h14.196v9.632H97.874v-9.632zm248.129 13.662c-11.427 0-20.69 7.858-20.69 17.569 0 9.704 9.263 17.576 20.69 17.576 11.434 0 20.683-7.872 20.683-17.576 0-9.711-9.249-17.57-20.683-17.57m5.688 17.527s-.014 4.729-.014 6.632c0 4.989-2.942 7.044-5.79 7.044-2.84 0-5.803-2.055-5.803-7.044 0-1.903.007-6.755.007-6.755s.008-4.621.008-6.517c0-4.975 2.978-7.015 5.79-7.015 2.825 0 5.788 2.04 5.788 7.015 0 1.896-.007 5.407.015 6.654v-.014zm-44.863.101v-5.602c0-4.845-3.345-6.07-5.544-6.07-2.257 0-5.551 1.225-5.551 6.07v11.145c0 4.852 3.294 6.1 5.551 6.1 2.199 0 5.544-1.248 5.544-6.1v-5.543zm-.094-31.274H320.7v47.076h-13.994s-.007-1.52-.007-1.802c-5.414 3.388-11.527 3.388-16.3 1.182-1.276-.605-9.675-4.635-9.675-15.536 0-8.262 7.786-17.288 17.995-16.386 3.36.295 5.745 1.52 8.016 2.804V26.372zM145.21 40.704c5.3-.152 16.027 3.309 15.955 15.702-.015 2.213-.007 17.042-.007 17.042H147.1v-20.56c0-2.733-2.61-5.76-6.474-5.76-3.857 0-6.72 3.027-6.72 5.76l.015 20.56h-14.05l-.015-31.302 14.065-.015s-.014 2.516 0 3.295c2.71-2.581 6.618-4.592 11.29-4.722m115.045 0c5.292-.152 16.033 3.309 15.961 15.702-.014 2.213 0 17.042 0 17.042h-14.072v-20.56c0-2.733-2.61-5.76-6.474-5.76-3.857 0-6.712 3.027-6.712 5.76l.015 20.56h-14.051V42.146l14.05-.015s-.014 2.516 0 3.295c2.704-2.581 6.604-4.592 11.283-4.722m-44.539 21.793s.007.145.007 1.904c0 5.724-3.763 7-5.854 7-2.083 0-5.926-1.276-5.926-7 0-1.716.015-6.46.015-6.46s26.667.014 26.667-.014c0-9.704-9.372-17.742-20.886-17.742-11.513 0-20.842 7.858-20.842 17.576s9.33 17.569 20.842 17.569c9.553 0 17.627-5.45 20.085-12.847l-14.108.014zm-11.758-9.444c-.029-2.74.029-4.57.93-6.135 1.103-1.932 3.136-2.848 4.981-2.862 1.839.014 3.872.93 4.968 2.862.9 1.565.951 3.396.93 6.135h-11.81zM369.606 31.54c1.377 0 2.61-.086 2.61-1.744 0-1.326-1.204-1.564-2.336-1.564h-2.206v3.309h1.932zm-1.932 6.028h-1.622V26.855h4.066c2.538 0 3.792.93 3.792 3.05 0 1.917-1.204 2.746-2.775 2.948l3.042 4.715h-1.817l-2.833-4.65h-1.853v4.65z" fill="#ed1c24"/><path d="M369.628 39.961c4.21 0 7.526-3.294 7.526-7.771 0-4.405-3.316-7.714-7.526-7.714-4.246 0-7.57 3.309-7.57 7.714 0 4.477 3.324 7.771 7.57 7.771m-9.43-7.771c0-5.335 4.318-9.264 9.43-9.264 5.068 0 9.394 3.929 9.394 9.264 0 5.378-4.326 9.321-9.394 9.321-5.112 0-9.43-3.943-9.43-9.321" fill="#ed1c24"/></svg>